<svg xmlns="http://www.w3.org/2000/svg" width="438.536" height="438.536"><path fill="#6adce4" d="M414.41 24.123C398.333 8.042 378.963 0 356.315 0H82.228C59.58 0 40.21 8.042 24.126 24.123 8.045 40.207.003 59.576.003 82.225v274.084c0 22.647 8.042 42.018 24.123 58.102 16.084 16.084 35.454 24.126 58.102 24.126h274.084c22.648 0 42.018-8.042 58.095-24.126 16.084-16.084 24.126-35.454 24.126-58.102V82.225c-.001-22.649-8.043-42.021-24.123-58.102zM135.475 354.741c-7.142 7.132-15.752 10.704-25.841 10.704-10.085 0-18.699-3.572-25.837-10.704-7.137-7.139-10.708-15.756-10.708-25.844 0-10.082 3.571-18.699 10.708-25.838 7.139-7.139 15.752-10.704 25.837-10.704 10.089 0 18.702 3.565 25.841 10.704 7.135 7.139 10.706 15.756 10.706 25.838 0 10.088-3.568 18.706-10.706 25.844zm108.343 7.844c-1.902 1.902-4.093 2.847-6.57 2.847h-36.54c-2.475 0-4.567-.801-6.28-2.423-1.714-1.615-2.667-3.661-2.856-6.139-2.093-29.308-13.608-54.434-34.546-75.377-20.937-20.93-46.059-32.448-75.374-34.543-2.474-.185-4.521-1.137-6.136-2.848-1.619-1.711-2.428-3.806-2.428-6.283v-36.543c0-2.475.953-4.665 2.855-6.567 1.903-1.903 4.187-2.758 6.854-2.57 44.158 2.474 81.843 19.323 113.058 50.537 31.217 31.221 48.064 68.898 50.535 113.062.194 2.665-.668 4.944-2.572 6.847zm109.633 0c-1.903 1.902-4.087 2.854-6.563 2.854h-36.546c-2.474 0-4.568-.856-6.279-2.567s-2.663-3.806-2.854-6.283c-1.334-38.827-11.946-74.802-31.833-107.921-19.89-33.12-46.394-59.623-79.514-79.509-33.12-19.892-69.09-30.502-107.921-31.833-2.474-.19-4.567-1.143-6.28-2.854-1.711-1.713-2.568-3.809-2.568-6.283V91.644c0-2.474.953-4.661 2.855-6.567 1.713-1.903 3.9-2.758 6.567-2.565 29.309.95 57.624 6.276 84.936 15.987 27.312 9.704 52.056 22.98 74.235 39.825a304.086 304.086 0 0 1 58.525 58.529c16.841 22.175 30.122 46.921 39.831 74.23 9.702 27.315 15.037 55.631 15.984 84.938.381 2.669-.47 4.853-2.575 6.564z"/></svg>
